<svg xmlns="http://www.w3.org/2000/svg" xmlns:xlink="http://www.w3.org/1999/xlink" version="1.1" x="0px" y="0px" viewBox="0 0 100 125" style="enable-background:new 0 0 100 100;" xml:space="preserve"><g><circle cx="31.9" cy="30.4" r="8.9"/><circle cx="68.1" cy="30.4" r="8.9"/><path d="M88.9,30.4L88.9,30.4c-1.5-1.5-3.9-1.5-5.4,0l-9.1,9.1c-3.5,3.5-9.1,3.5-12.5,0l-9-9c-0.7-0.7-1.6-1.1-2.5-1.1   c-1.1-0.2-2.4,0.2-3.2,1.1l-9.1,9.1c-3.5,3.5-9.1,3.5-12.5,0l-9-9c-1.5-1.5-3.9-1.6-5.4-0.1c-1.6,1.5-1.6,4,0,5.5l11.9,11.9v26.8   c0,2.2,1.7,4,3.9,3.9c2.1,0,3.7-1.7,3.7-3.8V62.9c0-0.7,0.5-1.2,1.2-1.2c0.7,0,1.2,0.5,1.2,1.2v11.7c0,2.2,1.7,4,3.9,3.9   c2.1,0,3.7-1.7,3.7-3.8V47.7l9.3-9.3l9.3,9.3l-4.7,19.9h4.8v7c0,2.2,1.7,4,3.9,3.9c2.1,0,3.7-1.7,3.7-3.8v-7h2.4v7   c0,2.2,1.7,4,3.9,3.9c2.1,0,3.7-1.7,3.7-3.8v-7h4.8L77,47.7l11.9-11.9C90.4,34.4,90.4,31.9,88.9,30.4z"/></g><text x="0" y="115" fill="#000000" font-size="5px" font-weight="bold" font-family="'Helvetica Neue', Helvetica, Arial-Unicode, Arial, Sans-serif">Created by Musmellow</text><text x="0" y="120" fill="#000000" font-size="5px" font-weight="bold" font-family="'Helvetica Neue', Helvetica, Arial-Unicode, Arial, Sans-serif">from the Noun Project</text></svg>