<svg xmlns="http://www.w3.org/2000/svg" xmlns:xlink="http://www.w3.org/1999/xlink" version="1.1" x="0px" y="0px" viewBox="0 0 66 82.5" enable-background="new 0 0 66 66" xml:space="preserve"><g><g><g><g><g><path d="M32.1,10.5V4.8c0-0.8,0.6-1.4,1.4-1.4c0.8,0,1.4,0.6,1.4,1.4v4.6c-1.1,0-2,0.9-2,2c0,0.1,0,0.3,0,0.4       C32.4,11.5,32.1,11,32.1,10.5z"/></g><g><path d="M25.6,35.1h13v27.4c0,0.6-0.4,1-1,1h-11c-0.6,0-1-0.4-1-1V35.1z"/></g><g><path d="M41.7,30v2.1c0,0.6-0.4,1-1,1H23.5c-0.6,0-1-0.4-1-1V30c0-0.6,0.4-1,1-1h17.2C41.2,29,41.7,29.4,41.7,30z"/></g><g><g><path d="M22.5,10.5V5.8c0-0.8,0.6-1.4,1.4-1.4s1.4,0.6,1.4,1.4v4.7c0,0.8-0.6,1.4-1.4,1.4S22.5,11.2,22.5,10.5z"/></g><g><path d="M27.3,10.5V3.9c0-0.8,0.6-1.4,1.4-1.4s1.4,0.6,1.4,1.4v6.6c0,0.8-0.6,1.4-1.4,1.4S27.3,11.2,27.3,10.5z"/></g><g><path d="M39.6,9.3h-2.8V5.8c0-0.8,0.6-1.4,1.4-1.4c0.8,0,1.4,0.7,1.4,1.4V9.3z"/></g><g><path d="M44,15.6c-0.3,1.8-1.2,3.5-2.5,5.1c-1.3,1.5-2.9,3.8-3.1,6.3H25.2c0-2.1-0.6-3-0.9-3.3c-1.8-2.4-1.9-7-1.8-10.1        c0.4,0.2,0.9,0.3,1.3,0.3c0.9,0,1.8-0.4,2.4-1c0.6,0.6,1.5,1,2.4,1c0.9,0,1.8-0.4,2.4-1c0.6,0.6,1.4,1,2.4,1        c0.1,0.2,0.2,0.4,0.3,0.6c-1.1,1-2.6,2.8-2.5,5.2c0,0.6,0.5,1,1,1c0,0,0,0,0,0c0.5,0,1-0.5,1-1c0-1.7,1.2-3.1,2-3.8        c0.2,0.1,0.4,0.2,0.6,0.4c1.4,0.6,2.4,0.3,5.6,0.4c0.6,0,1-0.5,1-1s-0.4-1-1-1c-3.4-0.1-4,0.1-4.8-0.2c-1.2-0.5-1.8-1.5-1.8-3        h8.9C44,12.2,44.3,13.7,44,15.6z"/></g></g></g></g></g><g><g><path d="M20.6,11.3c0-0.3-0.1-0.1,0-0.4c-0.1-0.4,0-0.6,0-1.6h-8.3c-1,0-1.4,1.3-0.5,1.8c1.1,1.2,1,3.1-0.1,4.2     c-1.2,1.2-3.2,1.2-4.4,0c-0.4-0.4-1-0.4-1.4,0c-0.4,0.4-0.4,1,0,1.4c1.9,2,5.2,2,7.2,0c1.5-1.5,1.9-3.7,1.1-5.5H20.6z"/></g><g><path d="M60.3,15.4c-0.4-0.4-1-0.4-1.4,0c-2.9,2.9-7.3-1.5-4.4-4.4c0.3-0.3,0.4-0.7,0.2-1.1c-0.1-0.4-0.5-0.6-0.9-0.6h-8.5     l0.4,1.5c0,0.2,0.1,0.3,0.1,0.5H52c-2.1,5.2,4.5,9.4,8.3,5.5C60.7,16.4,60.7,15.8,60.3,15.4z"/></g></g><g><g><path d="M63.3,39.5v0.6h-16v-0.6c0-0.6,0.5-1,1-1h14C62.8,38.5,63.3,39,63.3,39.5z"/></g><g><path d="M18.7,39.5v0.6h-16v-0.6c0-0.6,0.4-1,1-1h14C18.3,38.5,18.7,39,18.7,39.5z"/></g></g><g><g><path d="M20.9,43.1v3.4c0,1.7-1.3,3-3,3H3.5c-1.7,0-3-1.3-3-3v-3.4c0-0.6,0.4-1,1-1h18.4C20.5,42.1,20.9,42.6,20.9,43.1z"/></g><g><path d="M65.5,43.1v3.4c0,1.7-1.3,3-3,3H48.1c-1.7,0-3-1.3-3-3v-3.4c0-0.6,0.4-1,1-1h18.4C65.1,42.1,65.5,42.6,65.5,43.1z"/></g></g><g><g><path d="M59.8,36.5h-2L55.3,23l-2.4,13.5h-2l3-16.8c1.2,0.6,2.7,0.6,3,0.6L59.8,36.5z"/></g><g><path d="M15.2,36.5h-2L10.7,23L8.3,36.5h-2l2.9-16.2c0.1,0,0.1,0,0.2,0c1,0,1.9-0.2,2.8-0.6L15.2,36.5z"/></g></g></g><text x="0" y="81" fill="#000000" font-size="5px" font-weight="bold" font-family="'Helvetica Neue', Helvetica, Arial-Unicode, Arial, Sans-serif">Created by ProSymbols</text><text x="0" y="86" fill="#000000" font-size="5px" font-weight="bold" font-family="'Helvetica Neue', Helvetica, Arial-Unicode, Arial, Sans-serif">from the Noun Project</text></svg>