<svg xmlns="http://www.w3.org/2000/svg" xmlns:xlink="http://www.w3.org/1999/xlink" version="1.1" x="0px" y="0px" viewBox="0 0 40 50" enable-background="new 0 0 40 40" xml:space="preserve"><g display="none"><circle display="inline" fill="#000000" cx="20" cy="20" r="20"/></g><g><g><path d="M32,11h-1h-2V9h1c0.552,0,1-0.447,1-1s-0.448-1-1-1h-4c-0.552,0-1,0.447-1,1s0.448,1,1,1h1v2h-2h-1c-0.552,0-1,0.447-1,1    s0.448,1,1,1h1v14h2v6c0,0.553,0.448,1,1,1s1-0.447,1-1v-6h2V13h1c0.552,0,1-0.447,1-1S32.552,11,32,11z M29,25h-2V13h2V25z"/><path d="M20.5,30.56c0-3.893,0.298-15.773,0.302-15.918c0-1.895-1.047-2.719-1.812-3.321C18.304,10.779,18,10.507,18,9.729V6.431    c0-0.092,0.045-0.204,0.077-0.32c0.134-0.499,0.301-1.121-0.104-1.65C17.749,4.168,17.4,4,17.016,4h-4.031    c-0.371,0-0.71,0.164-0.933,0.451c-0.428,0.552-0.246,1.257-0.1,1.823C11.975,6.361,11.998,6.438,12,6.406v3.322    c0,0.844-0.365,1.163-0.97,1.693c-0.72,0.632-1.707,1.496-1.704,3.442c0.01,0.117,0.988,11.763,0.988,15.626    c0,0.224-0.087,0.672-0.171,1.105c-0.278,1.429-0.623,3.207,0.647,3.919c1.285,0.721,3.295,0.828,4.378,0.828    c1.878,0,3.628-0.298,4.68-0.796c1.362-0.646,1.048-2.467,0.795-3.931C20.574,31.205,20.5,30.78,20.5,30.56z M18.854,33.8    c-0.806,0.332-2.225,0.543-3.686,0.543c-1.38,0-2.615-0.194-3.281-0.511c-0.068-0.379,0.123-1.363,0.218-1.855    c0.112-0.574,0.208-1.07,0.208-1.486c0-3.947-0.954-15.312-0.991-15.71c0-0.956,0.386-1.294,1.025-1.854    C13.045,12.315,14,11.479,14,9.729V6.406C14,6.272,13.978,6.143,13.945,6h2.1C16.018,6.134,16,6.27,16,6.406v3.322    c0,1.782,1.013,2.58,1.753,3.163c0.654,0.516,1.049,0.826,1.049,1.725C18.799,14.736,18.5,26.642,18.5,30.56    c0,0.392,0.08,0.857,0.173,1.396C18.758,32.443,18.926,33.416,18.854,33.8z"/></g></g><text x="0" y="55" fill="#000000" font-size="5px" font-weight="bold" font-family="'Helvetica Neue', Helvetica, Arial-Unicode, Arial, Sans-serif">Created by Alexander Blagochevsky</text><text x="0" y="60" fill="#000000" font-size="5px" font-weight="bold" font-family="'Helvetica Neue', Helvetica, Arial-Unicode, Arial, Sans-serif">from the Noun Project</text></svg>