<?xml version="1.0"?>
<svg xmlns="http://www.w3.org/2000/svg" xmlns:xlink="http://www.w3.org/1999/xlink" version="1.1" id="Layer_1" x="0px" y="0px" viewBox="0 0 512 512" style="enable-background:new 0 0 512 512;" xml:space="preserve" width="512px" height="512px" class=""><g><g>
	<g>
		<path d="M491.982,0H117.15c-4.2,0-7.604,3.405-7.604,7.604s3.404,7.604,7.604,7.604h374.832c2.652,0,4.811,2.157,4.811,4.811    c0,2.653-2.159,4.811-4.811,4.811h-53.455H73.474H20.019c-2.652,0-4.811-2.157-4.811-4.811c0-2.653,2.159-4.811,4.811-4.811    h71.784c4.2,0,7.604-3.405,7.604-7.604S96.003,0,91.803,0H20.019C8.98,0,0,8.98,0,20.019c0,11.039,8.98,20.019,20.019,20.019    H65.87v464.359c0,2.559,1.288,4.946,3.425,6.353c2.136,1.406,4.839,1.643,7.188,0.631L256,434.016l179.517,77.364    c0.964,0.416,1.988,0.62,3.008,0.62c1.464,0,2.921-0.423,4.18-1.251c2.137-1.406,3.425-3.794,3.425-6.353V40.037h45.851    c11.039,0,20.019-8.98,20.019-20.019C512,8.98,503.021,0,491.982,0z M369.196,260.815c2.902-8.078,4.382-16.685,4.274-25.504    c-0.167-13.641-4.099-26.688-11.251-37.954h68.704v63.458H369.196z M430.923,276.023v63.448H300.358v0l53.079-53.08    c0.249-0.249,0.48-0.515,0.688-0.794c2.782-3.002,5.266-6.212,7.475-9.574H430.923z M81.078,118.698h254.04    c4.2,0,7.604-3.405,7.604-7.604s-3.404-7.604-7.604-7.604H81.078V40.037h349.846v63.453h-0.001h-70.458    c-4.2,0-7.604,3.405-7.604,7.604s3.404,7.604,7.604,7.604h70.458v63.452h-81.56c-13.124-11.812-29.906-18.391-47.681-18.603    c-16.719-0.222-32.694,5.239-45.682,15.434c-12.987-10.194-28.957-15.654-45.683-15.434c-17.775,0.212-34.556,6.792-47.681,18.603    H81.078V118.698z M81.078,197.357h68.704c-7.152,11.266-11.085,24.313-11.252,37.954c-0.107,8.819,1.373,17.425,4.274,25.504    H81.078V197.357z M81.078,276.022h69.322c2.206,3.358,4.686,6.563,7.463,9.562c0.214,0.284,0.448,0.555,0.703,0.808l19.083,19.084    c2.97,2.97,7.783,2.971,10.754,0c2.97-2.97,2.97-7.783,0-10.753l-18.503-18.503c-0.13-0.16-0.267-0.317-0.41-0.468    c-10.342-10.909-15.938-25.205-15.753-40.255c0.186-15.077,6.16-29.254,16.826-39.92c10.669-10.67,24.853-16.645,39.937-16.825    c15.062-0.138,29.358,5.425,40.266,15.78c2.935,2.786,7.537,2.786,10.471,0c10.907-10.356,25.186-15.925,40.264-15.78    c15.084,0.18,29.268,6.155,39.938,16.825c10.665,10.667,16.641,24.844,16.824,39.922c0.185,15.05-5.411,29.346-15.753,40.255    c-0.144,0.151-0.28,0.308-0.409,0.468L256,362.321l-46.306-46.307c-2.971-2.97-7.784-2.97-10.754,0s-2.97,7.784,0,10.753    l12.703,12.703H81.078V276.022z M81.078,492.839V433.34h138.066L81.078,492.839z M430.924,492.839L292.858,433.34h138.066V492.839    z M430.925,418.132H81.078v-63.453h145.773l23.773,23.773c1.427,1.427,3.36,2.227,5.378,2.227c2.018,0,3.95-0.801,5.378-2.227    l23.773-23.773h145.773V418.132z" data-original="#000000" class="active-path" data-old_color="#f0f0f0" fill="#f0f0f0"/>
	</g>
</g></g> </svg>
